<?xml version="1.0" encoding="UTF-8"?>
<svg width="385px" height="386px" viewBox="0 0 385 386" version="1.1" xmlns="http://www.w3.org/2000/svg" xmlns:xlink="http://www.w3.org/1999/xlink">
    <title>3Star</title>
    <g id="Stars" stroke="none" stroke-width="1" fill="none" fill-rule="evenodd">
        <g id="3Star" transform="translate(0.012791, 0.984840)" fill="#FDBC00" fill-rule="nonzero">
            <path d="M170.227209,261.61516 L125.907209,256.01516 L105.427209,216.01516 C102.645776,210.645201 97.0743178,207.302326 91.0272091,207.373994 C84.930584,207.45362 79.4084702,210.990255 76.7872091,216.49516 L57.5872091,256.81516 L13.4272091,264.01516 C7.43684848,264.991293 2.51453366,269.272811 0.71770985,275.070111 C-1.07911396,280.86741 0.558946399,287.18226 4.94720911,291.37516 L36.9472091,322.09516 L30.0672091,366.25516 C29.5570284,370.850607 31.0597706,375.442075 34.1882697,378.846618 C37.3167688,382.251161 41.7651045,384.135867 46.3872091,384.01516 C49.0676214,384.028571 51.7084503,383.368363 54.0672091,382.09516 L93.2672091,360.65516 L133.267209,380.97516 C138.716084,383.67858 145.2266,383.05853 150.067209,379.37516 C155.016018,375.665264 157.383385,369.435351 156.147209,363.37516 L147.987209,320.01516 L179.987209,288.01516 C184.214884,283.691804 185.644065,277.354397 183.681187,271.634978 C181.71831,265.91556 176.698745,261.791331 170.707209,260.97516 L170.227209,261.61516 Z" id="Path"></path>
            <path d="M383.987209,272.01516 C381.970216,266.29201 376.889196,262.202409 370.867209,261.45516 L325.747209,256.01516 L305.267209,216.01516 C302.485776,210.645201 296.914318,207.302326 290.867209,207.373994 C284.770584,207.45362 279.24847,210.990255 276.627209,216.49516 L257.427209,256.81516 L213.267209,264.01516 C207.307109,265.012878 202.417617,269.283446 200.627209,275.05516 C198.937699,280.747236 200.539196,286.90684 204.787209,291.05516 L236.787209,321.77516 L229.907209,365.93516 C229.202761,370.576317 230.572032,375.29269 233.652341,378.835045 C236.73265,382.377401 241.213195,384.388317 245.907209,384.336188 C248.587621,384.348571 251.22845,383.688363 253.587209,382.41516 L292.787209,360.97516 L332.787209,381.29516 C338.236084,383.99858 344.7466,383.37853 349.587209,379.69516 C354.536018,375.985264 356.903385,369.755351 355.667209,363.69516 L347.827209,320.01516 L379.827209,288.01516 C384.075222,283.86684 385.676719,277.707236 383.987209,272.01516 L383.987209,272.01516 Z" id="Path"></path>
            <path d="M245.747209,172.01516 C250.75578,168.344562 253.188234,162.1075 251.987209,156.01516 L243.667209,112.01516 L275.667209,80.01516 C279.745231,75.7656495 281.15889,69.6193022 279.347209,64.01516 C277.355851,58.3387319 272.348857,54.258959 266.387209,53.45516 L221.587209,48.01516 L201.267209,8.01516001 C198.287051,2.84036628 192.67316,-0.244189062 186.707209,0.0151600147 C180.668672,0.153807149 175.222873,3.68119935 172.627209,9.13516001 L153.427209,49.45516 L109.267209,56.65516 C103.246216,57.597156 98.2831793,61.8777749 96.4672091,67.69516 C94.8176523,73.416849 96.4820398,79.5812471 100.787209,83.69516 L132.787209,114.41516 L125.907209,158.57516 C124.775242,164.7326 127.338552,170.984576 132.467209,174.57516 C135.187205,176.473933 138.43012,177.480355 141.747209,177.455622 C144.427621,177.468571 147.06845,176.808363 149.427209,175.53516 L188.627209,154.09516 L228.467209,174.41516 C234.195113,177.101969 240.968318,176.161246 245.747209,172.01516 L245.747209,172.01516 Z" id="Path"></path>
        </g>
    </g>
</svg>