<?xml version="1.0" encoding="UTF-8"?>
<svg width="512px" height="512px" viewBox="0 0 512 512" version="1.1" xmlns="http://www.w3.org/2000/svg" xmlns:xlink="http://www.w3.org/1999/xlink">
    <title>previous</title>
    <g id="Page-1" stroke="none" stroke-width="1" fill="none" fill-rule="evenodd">
        <g id="previous" fill="#FFFFFF" fill-rule="nonzero">
            <path d="M256,0 C114.837,0 0,114.837 0,256 C0,397.163 114.837,512 256,512 C397.163,512 512,397.163 512,256 C512,114.837 397.163,0 256,0 Z M313.749,347.584 C322.09,355.925 322.09,369.408 313.749,377.749 C309.589,381.909 304.128,384 298.666,384 C293.205,384 287.743,381.909 283.583,377.749 L176.917,271.083 C168.576,262.742 168.576,249.259 176.917,240.918 L283.584,134.251 C291.925,125.91 305.408,125.91 313.749,134.251 C322.09,142.592 322.09,156.075 313.749,164.416 L222.165,256 L313.749,347.584 Z" id="Shape"></path>
        </g>
    </g>
</svg>