<?xml version="1.0" encoding="UTF-8"?>
<svg width="390px" height="391px" viewBox="0 0 390 391" version="1.1" xmlns="http://www.w3.org/2000/svg" xmlns:xlink="http://www.w3.org/1999/xlink">
    <title>star_1</title>
    <g id="Stars" stroke="none" stroke-width="1" fill="none" fill-rule="evenodd">
        <g id="star_1" transform="translate(0.012791, 0.984840)" fill-rule="nonzero">
            <path d="M91.0864624,212.373642 C93.1654968,212.349003 95.162768,212.911338 96.8793316,213.941415 C98.592685,214.969566 100.026378,216.463724 100.982508,218.305312 L100.982508,218.305312 L122.660249,260.644649 L172.483568,266.940015 L172.704,266.645 L172.974036,266.758273 C173.782424,267.113668 174.541691,267.563804 175.236833,268.096354 L175.530782,268.3296 C177.077102,269.600104 178.277209,271.29198 178.951948,273.258031 C179.626687,275.224081 179.718416,277.296348 179.278145,279.248641 C178.839665,281.192989 177.873506,283.018337 176.430056,284.501245 L176.430056,284.501245 L142.585314,318.345987 L151.241149,364.340719 C151.675116,366.434846 151.48253,368.559723 150.752661,370.480432 C150.026715,372.390815 148.769247,374.099219 147.068094,375.374496 C145.375485,376.662293 143.424511,377.401943 141.421263,377.592729 C139.424875,377.782861 137.376571,377.427881 135.508691,376.50566 L135.508691,376.50566 L93.181116,355.003252 L51.6811927,377.701169 C50.062346,378.572606 48.2508305,379.024421 46.4122247,379.015223 C43.0789812,379.09985 40.0207505,377.804115 37.8699073,375.463491 C35.7415706,373.14736 34.7076728,370.032207 35.0261217,366.906041 L35.0261217,366.906041 L42.2884997,320.291708 L8.4013562,287.760071 C6.8928909,286.318762 5.85711662,284.512742 5.35287322,282.568845 C4.84862981,280.624947 4.87591728,278.543171 5.49357546,276.55035 C6.11123365,274.557528 7.2660856,272.825231 8.78131962,271.507253 C10.2965536,270.189276 12.1721697,269.285617 14.2318023,268.949998 L14.2318023,268.949998 L60.9758661,261.328684 L81.3015507,218.644746 C82.2026188,216.752415 83.6022812,215.198394 85.3005839,214.110578 C86.9991519,213.022592 88.9964509,212.400943 91.0864624,212.373642 Z" id="Path" stroke="#979797" stroke-width="10" fill="#FFFFFF"></path>
            <path d="M370.867209,261.45516 L325.747209,256.01516 L305.267209,216.01516 C302.485776,210.645201 296.914318,207.302326 290.867209,207.37516 C284.770584,207.45362 279.24847,210.990255 276.627209,216.49516 L257.427209,256.81516 L213.267209,264.01516 C207.307109,265.012878 202.417617,269.283446 200.627209,275.05516 C198.937699,280.747236 200.539196,286.90684 204.787209,291.05516 L236.787209,321.77516 L229.907209,365.93516 C229.202761,370.576317 230.572032,375.29269 233.652341,378.835045 C236.73265,382.377401 241.213195,384.388317 245.907209,384.33516 C248.587621,384.348571 251.22845,383.688363 253.587209,382.41516 L292.787209,360.97516 L332.787209,381.29516 C338.236084,383.99858 344.7466,383.37853 349.587209,379.69516 C354.536018,375.985264 356.903385,369.755351 355.667209,363.69516 L347.827209,320.01516 L379.827209,288.01516 C384.075222,283.86684 385.676719,277.707236 383.987209,272.01516 C381.970216,266.29201 376.889196,262.202409 370.867209,261.45516 Z" id="Path" stroke="#979797" stroke-width="10" fill="#FFFFFF"></path>
            <path d="M245.747209,172.01516 C250.75578,168.344562 253.188234,162.1075 251.987209,156.01516 L243.667209,112.01516 L275.667209,80.01516 C279.745231,75.7656495 281.15889,69.6193022 279.347209,64.01516 C277.355851,58.3387319 272.348857,54.258959 266.387209,53.45516 L221.587209,48.01516 L201.267209,8.01516001 C198.287051,2.84036628 192.67316,-0.244189062 186.707209,0.0151600147 C180.668672,0.153807149 175.222873,3.68119935 172.627209,9.13516001 L153.427209,49.45516 L109.267209,56.65516 C103.246216,57.597156 98.2831793,61.8777749 96.4672091,67.69516 C94.8176523,73.416849 96.4820398,79.5812471 100.787209,83.69516 L132.787209,114.41516 L125.907209,158.57516 C124.775242,164.7326 127.338552,170.984576 132.467209,174.57516 C135.187205,176.473933 138.43012,177.480355 141.747209,177.455622 C144.427621,177.468571 147.06845,176.808363 149.427209,175.53516 L188.627209,154.09516 L228.467209,174.41516 C234.195113,177.101969 240.968318,176.161246 245.747209,172.01516 L245.747209,172.01516 Z" id="Path" fill="#FDBC00"></path>
        </g>
    </g>
</svg>